<?xml version="1.0" encoding="UTF-8"?>
<svg id="Light" xmlns="http://www.w3.org/2000/svg" viewBox="0 0 992.26 500">
  <g id="LabelPath">
    <path d="M400.78,315.35V164.37h51.55c12.42,0,22.42,1.81,30,5.42,7.58,3.61,13.14,8.74,16.68,15.38,3.54,6.64,5.31,14.44,5.31,23.39,0,14.3-4.08,25.27-12.24,32.92-8.16,7.66-19.68,11.91-34.55,12.78h-25.78v61.08h-30.98Zm30.98-88.81h17.33c4.19,0,8.12-.43,11.81-1.3,3.68-.87,6.64-2.56,8.88-5.09,2.24-2.53,3.36-6.25,3.36-11.16s-1.12-8.77-3.36-11.16c-2.24-2.38-5.2-3.93-8.88-4.66-3.68-.72-7.62-1.08-11.81-1.08h-17.33v34.44Zm50.25,88.81l-37.47-64.55,31.84-3.68,41.59,68.23h-35.96Z" style="fill: #3f3f3f;"/>
    <path d="M576.67,317.52c-9.53,0-17.73-1.52-24.59-4.55-6.86-3.03-12.42-7.15-16.68-12.35-4.26-5.2-7.36-11.08-9.31-17.65-1.95-6.57-2.92-13.39-2.92-20.47s.97-13.5,2.92-20.14c1.95-6.64,4.94-12.67,8.99-18.09,4.04-5.42,9.39-9.75,16.03-13,6.64-3.25,14.58-4.87,23.83-4.87,8.23,0,15.49,1.41,21.77,4.22,6.28,2.82,11.51,6.71,15.7,11.7,4.19,4.98,7.33,10.87,9.42,17.65,2.09,6.79,3.14,14.08,3.14,21.88,0,1.3-.04,2.82-.11,4.55-.07,1.73-.25,3.68-.54,5.85h-71.48c.87,6.64,3.68,11.59,8.45,14.84,4.77,3.25,10.47,4.87,17.11,4.87,5.34,0,10.69-.94,16.03-2.82,5.34-1.88,10.04-4.55,14.08-8.01l13.65,20.79c-5.34,3.76-10.29,6.79-14.84,9.1-4.55,2.31-9.24,3.97-14.08,4.98-4.84,1.01-10.36,1.52-16.57,1.52Zm19.06-60.22c.29-1.15,.54-2.31,.76-3.47,.22-1.15,.32-2.24,.32-3.25,0-2.89-.54-5.52-1.62-7.91s-2.57-4.44-4.44-6.17c-1.88-1.73-4.12-3.07-6.71-4.01-2.6-.94-5.49-1.41-8.66-1.41-5.06,0-9.21,.97-12.46,2.92-3.25,1.95-5.71,4.37-7.36,7.26-1.66,2.89-2.71,5.85-3.14,8.88h53.29l-9.96,7.15Z" style="fill: #3f3f3f;"/>
    <path d="M671.33,317.52c-7.51,0-13.79-2.27-18.85-6.82-5.06-4.55-7.58-11.81-7.58-21.77v-124.55h29.68v118.7c0,2.6,.65,4.44,1.95,5.52,1.3,1.08,2.96,1.62,4.98,1.62,1.3,0,2.52-.14,3.68-.43,1.15-.29,2.38-.58,3.68-.87v25.34c-3.18,1.15-6.28,1.98-9.31,2.49-3.03,.5-5.78,.76-8.23,.76Z" style="fill: #3f3f3f;"/>
    <path d="M705.98,192.97v-28.59h30.98v28.59h-30.98Zm.43,122.38v-106.79h29.68v106.79h-29.68Z" style="fill: #3f3f3f;"/>
    <path d="M809.09,317.52c-8.96,0-16.72-1.55-23.29-4.66-6.57-3.1-12.06-7.29-16.46-12.56-4.41-5.27-7.69-11.23-9.86-17.87-2.17-6.64-3.25-13.5-3.25-20.58s1.08-13.93,3.25-20.58c2.17-6.64,5.45-12.56,9.86-17.76,4.4-5.2,9.89-9.35,16.46-12.46,6.57-3.1,14.33-4.66,23.29-4.66,10.97,0,20.5,2.6,28.59,7.8,8.09,5.2,14.15,13.21,18.2,24.04l-25.99,10.4c-1.59-4.91-4.01-8.88-7.26-11.91s-7.76-4.55-13.54-4.55-9.93,1.45-13.32,4.33c-3.39,2.89-5.89,6.61-7.47,11.16-1.59,4.55-2.38,9.28-2.38,14.19s.79,9.68,2.38,14.3c1.59,4.62,4.08,8.38,7.47,11.26,3.39,2.89,7.83,4.33,13.32,4.33,5.77,0,10.29-1.52,13.54-4.55,3.25-3.03,5.67-7,7.26-11.91l25.99,10.4c-4.04,10.69-10.11,18.67-18.2,23.94-8.09,5.27-17.62,7.91-28.59,7.91Z" style="fill: #3f3f3f;"/>
  </g>
  <g id="Icon">
    <path d="M181.61,86.3c22.19,13.19,57.43,37.98,88.24,80.07,37.08,50.66,49.08,100.87,53.51,127.65-35.89,29-71.78,58-107.67,87l-101.14-71.78c14.37-26.31,29.65-59.24,42.19-98.41,15.23-47.56,21.98-90.4,24.88-124.54Z" style="fill: #933;"/>
    <path d="M181.61,86.3c9.06,46.03,17.09,95.99,23.2,149.54,5.86,51.39,9.25,99.95,10.88,145.19,35.89-29,71.78-58,107.67-87-4.19-25.49-14.5-67.7-42.84-112.06-33.58-52.56-75.67-81.84-98.9-95.66Z" style="fill: #f33;"/>
  </g>
</svg>