<?xml version="1.0" encoding="UTF-8"?>
<svg id="Black_Background_Avatar" data-name="Black Background Avatar" xmlns="http://www.w3.org/2000/svg" viewBox="0 0 96 96">
  <path d="M39.89,16c4.82,2.86,12.47,8.25,19.16,17.39,8.05,11,10.66,21.9,11.62,27.72-7.79,6.3-15.59,12.6-23.38,18.89l-21.96-15.59c3.12-5.71,6.44-12.86,9.16-21.37,3.31-10.33,4.77-19.63,5.4-27.04Z" style="fill: #933;"/>
  <path d="M39.89,16c1.97,10,3.71,20.85,5.04,32.47,1.27,11.16,2.01,21.7,2.36,31.53,7.79-6.3,15.59-12.6,23.38-18.89-.91-5.53-3.15-14.7-9.3-24.33-7.29-11.41-16.43-17.77-21.48-20.77Z" style="fill: #f33;"/>
</svg>